<svg xmlns="http://www.w3.org/2000/svg" xmlns:xlink="http://www.w3.org/1999/xlink" width="1920" zoomAndPan="magnify" viewBox="0 0 1440 809.999993" height="1080" preserveAspectRatio="xMidYMid meet" version="1.2"><g id="3771c5917f"><path style=" stroke:none;fill-rule:nonzero;fill:#001f8e;fill-opacity:1;" d="M 783 93.808594 C 782.785156 93.808594 782.5625 93.789062 782.339844 93.746094 C 770.472656 91.378906 758.320312 89.675781 746.210938 88.683594 C 744.359375 88.53125 742.984375 86.90625 743.132812 85.054688 C 743.285156 83.203125 744.910156 81.824219 746.761719 81.976562 C 759.125 82.992188 771.539062 84.730469 783.65625 87.144531 C 785.480469 87.507812 786.660156 89.28125 786.296875 91.101562 C 785.976562 92.703125 784.574219 93.808594 783 93.808594 Z M 672.90625 91.035156 C 671.265625 91.035156 669.828125 89.832031 669.582031 88.160156 C 669.3125 86.320312 670.582031 84.613281 672.421875 84.34375 C 684.636719 82.546875 697.121094 81.4375 709.527344 81.046875 C 711.390625 80.996094 712.9375 82.445312 712.996094 84.304688 C 713.054688 86.160156 711.59375 87.714844 709.738281 87.773438 C 697.589844 88.15625 685.363281 89.242188 673.398438 91 C 673.234375 91.023438 673.070312 91.035156 672.90625 91.035156 Z M 672.90625 91.035156 "/><path style=" stroke:none;fill-rule:nonzero;fill:#001f8e;fill-opacity:1;" d="M 421.992188 527.144531 C 420.65625 527.144531 419.394531 526.34375 418.867188 525.027344 C 414.277344 513.527344 410.3125 501.636719 407.082031 489.683594 C 406.597656 487.890625 407.65625 486.042969 409.453125 485.558594 C 411.246094 485.074219 413.09375 486.136719 413.578125 487.929688 C 416.738281 499.628906 420.621094 511.269531 425.117188 522.53125 C 425.804688 524.257812 424.964844 526.214844 423.238281 526.902344 C 422.832031 527.066406 422.410156 527.144531 421.992188 527.144531 Z M 402.78125 456.085938 C 401.144531 456.085938 399.707031 454.890625 399.460938 453.21875 C 397.636719 441.007812 396.496094 428.53125 396.074219 416.125 C 396.011719 414.269531 397.46875 412.714844 399.324219 412.648438 C 401.175781 412.585938 402.738281 414.042969 402.800781 415.898438 C 403.210938 428.046875 404.328125 440.269531 406.113281 452.226562 C 406.386719 454.0625 405.121094 455.777344 403.285156 456.050781 C 403.117188 456.074219 402.949219 456.085938 402.78125 456.085938 Z M 400.273438 382.523438 C 400.183594 382.523438 400.09375 382.519531 400.003906 382.511719 C 398.152344 382.367188 396.769531 380.746094 396.917969 378.894531 C 397.898438 366.53125 399.609375 354.113281 401.996094 341.992188 C 402.355469 340.171875 404.121094 338.984375 405.945312 339.34375 C 407.769531 339.699219 408.957031 341.46875 408.597656 343.292969 C 406.261719 355.164062 404.585938 367.320312 403.625 379.425781 C 403.484375 381.1875 402.011719 382.523438 400.273438 382.523438 Z M 414.5 310.304688 C 414.160156 310.304688 413.8125 310.253906 413.472656 310.144531 C 411.703125 309.574219 410.726562 307.679688 411.296875 305.910156 C 415.074219 294.125 419.585938 282.429688 424.703125 271.152344 C 425.472656 269.457031 427.464844 268.710938 429.160156 269.476562 C 430.851562 270.246094 431.601562 272.238281 430.832031 273.933594 C 425.820312 284.976562 421.402344 296.425781 417.703125 307.964844 C 417.246094 309.394531 415.921875 310.304688 414.5 310.304688 Z M 444.914062 243.269531 C 444.324219 243.269531 443.726562 243.113281 443.183594 242.789062 C 441.589844 241.832031 441.074219 239.765625 442.03125 238.171875 C 448.40625 227.570312 455.472656 217.21875 463.03125 207.402344 C 464.164062 205.929688 466.277344 205.65625 467.75 206.789062 C 469.222656 207.921875 469.496094 210.035156 468.363281 211.507812 C 460.960938 221.121094 454.042969 231.257812 447.800781 241.640625 C 447.167969 242.6875 446.054688 243.269531 444.914062 243.269531 Z M 489.820312 184.945312 C 488.976562 184.945312 488.132812 184.628906 487.476562 183.992188 C 486.144531 182.699219 486.113281 180.570312 487.40625 179.234375 C 496.03125 170.351562 505.261719 161.875 514.835938 154.035156 C 516.273438 152.859375 518.394531 153.070312 519.570312 154.507812 C 520.75 155.945312 520.535156 158.066406 519.097656 159.242188 C 509.71875 166.917969 500.683594 175.222656 492.234375 183.921875 C 491.574219 184.601562 490.699219 184.945312 489.820312 184.945312 Z M 489.820312 184.945312 "/><path style=" stroke:none;fill-rule:nonzero;fill:#001f8e;fill-opacity:1;" d="M 721.472656 728.984375 C 719.621094 728.984375 718.117188 727.488281 718.109375 725.632812 C 718.101562 723.777344 719.601562 722.261719 721.457031 722.253906 C 733.621094 722.195312 745.871094 721.441406 757.871094 720.015625 C 759.71875 719.792969 761.390625 721.113281 761.609375 722.957031 C 761.828125 724.800781 760.511719 726.476562 758.667969 726.695312 C 746.417969 728.15625 733.90625 728.925781 721.488281 728.984375 C 721.484375 728.984375 721.480469 728.984375 721.472656 728.984375 Z M 684.65625 727.066406 C 684.535156 727.066406 684.410156 727.0625 684.289062 727.046875 C 671.960938 725.699219 659.601562 723.621094 647.550781 720.871094 C 645.738281 720.457031 644.605469 718.652344 645.019531 716.84375 C 645.429688 715.03125 647.234375 713.898438 649.046875 714.308594 C 660.847656 717.003906 672.949219 719.039062 685.019531 720.359375 C 686.867188 720.5625 688.199219 722.222656 688 724.070312 C 687.808594 725.792969 686.351562 727.066406 684.65625 727.066406 Z M 794.558594 720.257812 C 793.035156 720.257812 791.65625 719.21875 791.289062 717.675781 C 790.859375 715.867188 791.972656 714.050781 793.78125 713.621094 C 805.574219 710.8125 817.324219 707.277344 828.710938 703.125 C 830.457031 702.488281 832.390625 703.386719 833.027344 705.132812 C 833.664062 706.878906 832.765625 708.808594 831.019531 709.445312 C 819.390625 713.6875 807.386719 717.296875 795.34375 720.167969 C 795.078125 720.230469 794.816406 720.257812 794.558594 720.257812 Z M 612.890625 710.6875 C 612.519531 710.6875 612.140625 710.625 611.769531 710.492188 C 600.238281 706.410156 588.8125 701.613281 577.8125 696.238281 C 576.140625 695.421875 575.449219 693.40625 576.265625 691.734375 C 577.082031 690.066406 579.097656 689.375 580.765625 690.191406 C 591.539062 695.457031 602.722656 700.152344 614.015625 704.148438 C 615.765625 704.769531 616.683594 706.691406 616.0625 708.445312 C 615.574219 709.824219 614.277344 710.6875 612.890625 710.6875 Z M 612.890625 710.6875 "/><path style=" stroke:none;fill-rule:nonzero;fill:#001f8e;fill-opacity:1;" d="M 1021.074219 518.816406 C 1020.6875 518.816406 1020.296875 518.75 1019.914062 518.609375 C 1018.167969 517.96875 1017.273438 516.039062 1017.914062 514.292969 C 1022.089844 502.914062 1025.644531 491.167969 1028.480469 479.378906 C 1028.914062 477.574219 1030.730469 476.460938 1032.539062 476.894531 C 1034.34375 477.332031 1035.457031 479.148438 1035.023438 480.953125 C 1032.128906 492.992188 1028.496094 504.992188 1024.230469 516.613281 C 1023.730469 517.972656 1022.441406 518.816406 1021.074219 518.816406 Z M 1038.289062 447.25 C 1038.152344 447.25 1038.015625 447.238281 1037.878906 447.222656 C 1036.035156 447 1034.71875 445.324219 1034.945312 443.480469 C 1036.398438 431.480469 1037.171875 419.226562 1037.253906 407.066406 C 1037.265625 405.214844 1038.769531 403.722656 1040.617188 403.722656 C 1040.625 403.722656 1040.632812 403.722656 1040.640625 403.722656 C 1042.5 403.738281 1043.996094 405.253906 1043.980469 407.109375 C 1043.902344 419.527344 1043.105469 432.035156 1041.625 444.289062 C 1041.417969 445.996094 1039.964844 447.25 1038.289062 447.25 Z M 1038.769531 373.632812 C 1037.074219 373.632812 1035.613281 372.351562 1035.429688 370.628906 C 1034.128906 358.558594 1032.121094 346.453125 1029.449219 334.644531 C 1029.039062 332.835938 1030.175781 331.03125 1031.988281 330.621094 C 1033.800781 330.214844 1035.605469 331.351562 1036.015625 333.164062 C 1038.738281 345.21875 1040.792969 357.582031 1042.117188 369.90625 C 1042.316406 371.753906 1040.980469 373.414062 1039.132812 373.613281 C 1039.011719 373.625 1038.890625 373.632812 1038.769531 373.632812 Z M 1022.535156 301.847656 C 1021.144531 301.847656 1019.847656 300.980469 1019.359375 299.597656 C 1015.339844 288.171875 1010.605469 276.851562 1005.285156 265.949219 C 1004.46875 264.28125 1005.164062 262.265625 1006.832031 261.449219 C 1008.503906 260.636719 1010.515625 261.328125 1011.332031 263 C 1016.765625 274.132812 1021.601562 285.695312 1025.707031 297.363281 C 1026.324219 299.117188 1025.402344 301.039062 1023.648438 301.65625 C 1023.28125 301.785156 1022.902344 301.847656 1022.535156 301.847656 Z M 990.261719 235.695312 C 989.152344 235.695312 988.070312 235.148438 987.425781 234.144531 C 980.898438 223.941406 973.703125 214 966.039062 204.597656 C 964.863281 203.15625 965.078125 201.039062 966.519531 199.863281 C 967.960938 198.6875 970.078125 198.90625 971.253906 200.34375 C 979.078125 209.949219 986.425781 220.097656 993.09375 230.519531 C 994.09375 232.085938 993.636719 234.164062 992.074219 235.167969 C 991.511719 235.527344 990.882812 235.695312 990.261719 235.695312 Z M 943.757812 178.636719 C 942.914062 178.636719 942.066406 178.320312 941.410156 177.683594 C 932.730469 169.21875 923.464844 161.167969 913.875 153.753906 C 912.40625 152.617188 912.136719 150.503906 913.273438 149.035156 C 914.410156 147.566406 916.523438 147.292969 917.992188 148.429688 C 927.78125 156 937.242188 164.222656 946.109375 172.863281 C 947.4375 174.160156 947.464844 176.292969 946.167969 177.621094 C 945.507812 178.296875 944.636719 178.636719 943.757812 178.636719 Z M 943.757812 178.636719 "/><path style=" stroke:none;fill-rule:nonzero;fill:#c0f3ff;fill-opacity:1;" d="M 955.390625 404.933594 C 955.390625 408.789062 955.296875 412.640625 955.109375 416.488281 C 954.917969 420.335938 954.636719 424.179688 954.257812 428.011719 C 953.878906 431.847656 953.410156 435.671875 952.84375 439.484375 C 952.277344 443.292969 951.617188 447.089844 950.867188 450.871094 C 950.117188 454.648438 949.269531 458.40625 948.335938 462.144531 C 947.398438 465.882812 946.371094 469.59375 945.253906 473.28125 C 944.132812 476.96875 942.925781 480.628906 941.628906 484.257812 C 940.328125 487.882812 938.941406 491.480469 937.46875 495.039062 C 935.992188 498.597656 934.433594 502.121094 932.785156 505.605469 C 931.136719 509.085938 929.40625 512.527344 927.589844 515.925781 C 925.773438 519.324219 923.875 522.675781 921.894531 525.980469 C 919.910156 529.285156 917.851562 532.542969 915.710938 535.746094 C 913.570312 538.949219 911.351562 542.097656 909.054688 545.195312 C 906.761719 548.289062 904.390625 551.324219 901.945312 554.304688 C 899.5 557.285156 896.984375 560.199219 894.398438 563.054688 C 891.808594 565.910156 889.152344 568.699219 886.429688 571.425781 C 883.703125 574.148438 880.914062 576.804688 878.058594 579.394531 C 875.203125 581.980469 872.285156 584.5 869.308594 586.941406 C 866.328125 589.386719 863.292969 591.757812 860.195312 594.050781 C 857.101562 596.347656 853.953125 598.566406 850.75 600.707031 C 847.542969 602.847656 844.289062 604.910156 840.984375 606.890625 C 837.679688 608.871094 834.328125 610.769531 830.929688 612.585938 C 827.53125 614.402344 824.089844 616.132812 820.605469 617.78125 C 817.125 619.429688 813.601562 620.992188 810.042969 622.464844 C 806.480469 623.941406 802.886719 625.328125 799.257812 626.625 C 795.632812 627.921875 791.972656 629.132812 788.285156 630.25 C 784.597656 631.367188 780.886719 632.394531 777.148438 633.332031 C 773.410156 634.269531 769.652344 635.113281 765.871094 635.863281 C 762.09375 636.617188 758.296875 637.273438 754.484375 637.839844 C 750.675781 638.40625 746.851562 638.875 743.015625 639.253906 C 739.179688 639.632812 735.339844 639.914062 731.492188 640.105469 C 727.640625 640.292969 723.789062 640.386719 719.9375 640.386719 C 716.085938 640.386719 712.234375 640.292969 708.382812 640.105469 C 704.535156 639.914062 700.695312 639.632812 696.859375 639.253906 C 693.023438 638.875 689.199219 638.40625 685.390625 637.839844 C 681.578125 637.273438 677.78125 636.617188 674.003906 635.863281 C 670.222656 635.113281 666.464844 634.269531 662.726562 633.332031 C 658.988281 632.394531 655.277344 631.367188 651.589844 630.25 C 647.902344 629.132812 644.242188 627.921875 640.617188 626.625 C 636.988281 625.328125 633.394531 623.941406 629.832031 622.464844 C 626.273438 620.992188 622.75 619.429688 619.269531 617.78125 C 615.785156 616.132812 612.34375 614.402344 608.945312 612.585938 C 605.546875 610.769531 602.195312 608.871094 598.890625 606.890625 C 595.585938 604.910156 592.332031 602.847656 589.125 600.707031 C 585.921875 598.566406 582.773438 596.347656 579.675781 594.050781 C 576.582031 591.757812 573.546875 589.386719 570.566406 586.941406 C 567.589844 584.5 564.671875 581.980469 561.816406 579.394531 C 558.960938 576.804688 556.171875 574.148438 553.445312 571.425781 C 550.722656 568.699219 548.066406 565.910156 545.476562 563.054688 C 542.890625 560.199219 540.375 557.285156 537.929688 554.304688 C 535.484375 551.324219 533.113281 548.289062 530.820312 545.195312 C 528.523438 542.097656 526.304688 538.949219 524.164062 535.746094 C 522.023438 532.542969 519.964844 529.285156 517.980469 525.980469 C 516 522.675781 514.101562 519.324219 512.285156 515.925781 C 510.46875 512.527344 508.738281 509.085938 507.089844 505.605469 C 505.441406 502.121094 503.882812 498.597656 502.40625 495.039062 C 500.933594 491.480469 499.546875 487.882812 498.246094 484.257812 C 496.949219 480.628906 495.742188 476.96875 494.621094 473.28125 C 493.503906 469.59375 492.476562 465.882812 491.539062 462.144531 C 490.601562 458.40625 489.757812 454.648438 489.007812 450.871094 C 488.257812 447.089844 487.597656 443.292969 487.03125 439.484375 C 486.464844 435.671875 485.996094 431.847656 485.617188 428.011719 C 485.238281 424.179688 484.957031 420.335938 484.765625 416.488281 C 484.578125 412.640625 484.484375 408.789062 484.484375 404.933594 C 484.484375 401.082031 484.578125 397.230469 484.765625 393.382812 C 484.957031 389.53125 485.238281 385.691406 485.617188 381.855469 C 485.996094 378.019531 486.464844 374.199219 487.03125 370.386719 C 487.597656 366.574219 488.257812 362.777344 489.007812 359 C 489.757812 355.21875 490.601562 351.460938 491.539062 347.722656 C 492.476562 343.984375 493.503906 340.273438 494.621094 336.585938 C 495.742188 332.898438 496.949219 329.242188 498.246094 325.613281 C 499.546875 321.984375 500.933594 318.390625 502.40625 314.828125 C 503.882812 311.269531 505.441406 307.75 507.089844 304.265625 C 508.738281 300.78125 510.46875 297.339844 512.285156 293.941406 C 514.101562 290.542969 516 287.191406 517.980469 283.886719 C 519.964844 280.582031 522.023438 277.328125 524.164062 274.125 C 526.304688 270.917969 528.523438 267.769531 530.820312 264.675781 C 533.113281 261.578125 535.484375 258.542969 537.929688 255.5625 C 540.375 252.585938 542.890625 249.667969 545.476562 246.8125 C 548.066406 243.957031 550.722656 241.167969 553.445312 238.441406 C 556.171875 235.71875 558.960938 233.0625 561.816406 230.472656 C 564.671875 227.886719 567.589844 225.371094 570.566406 222.925781 C 573.546875 220.480469 576.582031 218.113281 579.675781 215.816406 C 582.773438 213.519531 585.921875 211.300781 589.125 209.160156 C 592.332031 207.019531 595.585938 204.960938 598.890625 202.980469 C 602.195312 200.996094 605.546875 199.097656 608.945312 197.28125 C 612.34375 195.464844 615.785156 193.734375 619.269531 192.085938 C 622.75 190.4375 626.273438 188.878906 629.832031 187.402344 C 633.394531 185.929688 636.988281 184.542969 640.617188 183.246094 C 644.242188 181.945312 647.902344 180.738281 651.589844 179.617188 C 655.277344 178.5 658.988281 177.472656 662.726562 176.535156 C 666.464844 175.601562 670.222656 174.757812 674.003906 174.003906 C 677.78125 173.253906 681.578125 172.59375 685.390625 172.027344 C 689.199219 171.464844 693.023438 170.992188 696.859375 170.613281 C 700.695312 170.238281 704.535156 169.953125 708.382812 169.765625 C 712.234375 169.574219 716.085938 169.480469 719.9375 169.480469 C 723.789062 169.480469 727.640625 169.574219 731.492188 169.765625 C 735.339844 169.953125 739.179688 170.238281 743.015625 170.613281 C 746.851562 170.992188 750.675781 171.464844 754.484375 172.027344 C 758.296875 172.59375 762.09375 173.253906 765.871094 174.003906 C 769.652344 174.757812 773.410156 175.601562 777.148438 176.535156 C 780.886719 177.472656 784.597656 178.5 788.285156 179.617188 C 791.972656 180.738281 795.632812 181.945312 799.257812 183.246094 C 802.886719 184.542969 806.480469 185.929688 810.042969 187.402344 C 813.601562 188.878906 817.125 190.4375 820.605469 192.085938 C 824.089844 193.734375 827.53125 195.464844 830.929688 197.28125 C 834.328125 199.097656 837.679688 200.996094 840.984375 202.980469 C 844.289062 204.960938 847.542969 207.019531 850.75 209.160156 C 853.953125 211.300781 857.101562 213.519531 860.195312 215.816406 C 863.292969 218.113281 866.328125 220.480469 869.308594 222.925781 C 872.285156 225.371094 875.203125 227.886719 878.058594 230.472656 C 880.914062 233.0625 883.703125 235.71875 886.429688 238.441406 C 889.152344 241.167969 891.808594 243.957031 894.398438 246.8125 C 896.984375 249.667969 899.5 252.585938 901.945312 255.5625 C 904.390625 258.542969 906.761719 261.578125 909.054688 264.675781 C 911.351562 267.769531 913.570312 270.917969 915.710938 274.125 C 917.851562 277.328125 919.910156 280.582031 921.894531 283.886719 C 923.875 287.191406 925.773438 290.542969 927.589844 293.941406 C 929.40625 297.339844 931.136719 300.78125 932.785156 304.265625 C 934.433594 307.75 935.992188 311.269531 937.46875 314.828125 C 938.941406 318.390625 940.328125 321.984375 941.628906 325.613281 C 942.925781 329.242188 944.132812 332.898438 945.253906 336.585938 C 946.371094 340.273438 947.398438 343.984375 948.335938 347.722656 C 949.269531 351.460938 950.117188 355.21875 950.867188 359 C 951.617188 362.777344 952.277344 366.574219 952.84375 370.386719 C 953.410156 374.199219 953.878906 378.019531 954.257812 381.855469 C 954.636719 385.691406 954.917969 389.53125 955.109375 393.382812 C 955.296875 397.230469 955.390625 401.082031 955.390625 404.933594 Z M 955.390625 404.933594 "/><path style=" stroke:none;fill-rule:nonzero;fill:#ffffff;fill-opacity:1;" d="M 551.492188 569.40625 L 660.820312 569.40625 C 689.835938 569.40625 713.359375 592.933594 713.359375 621.949219 C 713.359375 650.964844 689.84375 674.488281 660.828125 674.492188 L 551.492188 674.511719 Z M 551.492188 569.40625 "/><path style=" stroke:none;fill-rule:nonzero;fill:#001f8e;fill-opacity:1;" d="M 551.492188 677.878906 C 549.632812 677.878906 548.125 676.371094 548.125 674.515625 C 548.125 672.65625 549.632812 671.148438 551.488281 671.148438 L 660.828125 671.128906 C 687.941406 671.121094 709.996094 649.0625 709.996094 621.949219 C 709.996094 594.832031 687.933594 572.773438 660.820312 572.773438 L 551.492188 572.773438 C 549.632812 572.773438 548.125 571.265625 548.125 569.40625 C 548.125 567.550781 549.632812 566.042969 551.492188 566.042969 L 660.820312 566.042969 C 691.644531 566.042969 716.726562 591.121094 716.726562 621.949219 C 716.726562 652.773438 691.652344 677.851562 660.832031 677.855469 Z M 551.492188 677.878906 "/><path style=" stroke:none;fill-rule:nonzero;fill:#ffffff;fill-opacity:1;" d="M 588.261719 395.945312 L 488.792969 395.945312 C 459.777344 395.945312 436.253906 419.46875 436.253906 448.488281 C 436.253906 477.503906 459.769531 501.027344 488.785156 501.03125 L 588.261719 501.050781 Z M 588.261719 395.945312 "/><path style=" stroke:none;fill-rule:nonzero;fill:#001f8e;fill-opacity:1;" d="M 588.261719 504.417969 L 488.785156 504.394531 C 457.964844 504.390625 432.886719 479.308594 432.886719 448.488281 C 432.886719 417.660156 457.96875 392.582031 488.792969 392.582031 L 588.261719 392.582031 C 590.121094 392.582031 591.628906 394.089844 591.628906 395.945312 C 591.628906 397.804688 590.121094 399.3125 588.261719 399.3125 L 488.792969 399.3125 C 461.679688 399.3125 439.617188 421.371094 439.617188 448.488281 C 439.617188 475.601562 461.671875 497.660156 488.785156 497.667969 L 588.265625 497.6875 C 590.121094 497.6875 591.628906 499.195312 591.628906 501.054688 C 591.628906 502.910156 590.121094 504.417969 588.261719 504.417969 Z M 588.261719 504.417969 "/><path style=" stroke:none;fill-rule:nonzero;fill:#6cdcff;fill-opacity:1;" d="M 711.613281 423.195312 L 683.484375 397.027344 C 682.828125 396.417969 681.808594 396.417969 681.152344 397.027344 L 653.023438 423.195312 C 651.777344 424.359375 652.542969 426.558594 654.191406 426.558594 L 661.597656 426.558594 L 661.597656 454.511719 C 661.597656 487.183594 635.113281 513.667969 602.441406 513.667969 L 527.429688 513.667969 C 476.605469 513.667969 435.40625 554.867188 435.40625 605.691406 L 435.40625 667.980469 C 435.40625 671.589844 438.332031 674.511719 441.9375 674.507812 L 471.730469 674.488281 C 475.332031 674.484375 478.25 671.5625 478.25 667.960938 L 478.25 616.816406 C 478.25 583.511719 505.25 556.515625 538.550781 556.515625 L 612.417969 556.515625 C 663.242188 556.515625 704.441406 515.3125 704.441406 464.492188 L 704.441406 426.558594 L 710.445312 426.558594 C 712.097656 426.558594 712.863281 424.359375 711.613281 423.195312 Z M 711.613281 423.195312 "/><path style=" stroke:none;fill-rule:nonzero;fill:#001f8e;fill-opacity:1;" d="M 441.933594 677.875 C 439.292969 677.875 436.808594 676.84375 434.941406 674.980469 C 433.070312 673.109375 432.042969 670.625 432.042969 667.984375 L 432.042969 605.691406 C 432.042969 580.214844 441.964844 556.257812 459.980469 538.242188 C 477.996094 520.226562 501.949219 510.304688 527.429688 510.304688 L 602.441406 510.304688 C 633.203125 510.304688 658.234375 485.277344 658.234375 454.511719 L 658.234375 429.925781 L 654.191406 429.925781 C 652.082031 429.925781 650.207031 428.628906 649.417969 426.625 C 648.601562 424.546875 649.117188 422.234375 650.734375 420.734375 L 678.859375 394.566406 C 680.800781 392.761719 683.839844 392.761719 685.777344 394.566406 L 713.90625 420.734375 C 715.519531 422.238281 716.035156 424.550781 715.21875 426.625 C 714.429688 428.628906 712.558594 429.925781 710.445312 429.925781 L 707.808594 429.925781 L 707.808594 464.492188 C 707.808594 489.96875 697.886719 513.925781 679.867188 531.941406 C 661.851562 549.957031 637.898438 559.878906 612.417969 559.878906 L 538.550781 559.878906 C 507.15625 559.878906 481.617188 585.421875 481.617188 616.816406 L 481.617188 667.960938 C 481.617188 673.410156 477.183594 677.847656 471.730469 677.851562 L 441.941406 677.875 C 441.9375 677.875 441.9375 677.875 441.933594 677.875 Z M 527.429688 517.03125 C 478.542969 517.03125 438.769531 556.804688 438.769531 605.691406 L 438.769531 667.980469 C 438.769531 668.828125 439.101562 669.621094 439.699219 670.21875 C 440.296875 670.816406 441.089844 671.144531 441.933594 671.144531 L 471.726562 671.125 C 473.46875 671.121094 474.886719 669.703125 474.886719 667.960938 L 474.886719 616.816406 C 474.886719 599.808594 481.511719 583.820312 493.535156 571.796875 C 505.558594 559.773438 521.546875 553.148438 538.554688 553.148438 L 612.421875 553.148438 C 661.304688 553.148438 701.078125 513.378906 701.078125 464.492188 L 701.078125 426.558594 C 701.078125 424.703125 702.585938 423.195312 704.441406 423.195312 L 706.671875 423.195312 L 682.320312 400.539062 L 657.964844 423.195312 L 661.597656 423.195312 C 663.457031 423.195312 664.960938 424.703125 664.960938 426.558594 L 664.960938 454.511719 C 664.960938 471.210938 658.457031 486.914062 646.648438 498.722656 C 634.839844 510.53125 619.140625 517.03125 602.441406 517.03125 Z M 709.320312 425.65625 C 709.320312 425.65625 709.320312 425.65625 709.320312 425.660156 Z M 709.320312 425.65625 "/><path style=" stroke:none;fill-rule:nonzero;fill:#d9d9d9;fill-opacity:1;" d="M 600.53125 627.101562 L 600.53125 616.820312 C 600.53125 614.910156 598.984375 613.363281 597.074219 613.363281 L 589.53125 613.363281 C 588.425781 607.628906 586.28125 602.632812 583.324219 598.109375 L 588.125 593.261719 C 589.464844 591.90625 589.460938 589.730469 588.117188 588.382812 L 580.582031 580.828125 C 579.203125 579.445312 576.957031 579.476562 575.617188 580.898438 L 571.308594 585.46875 C 566.777344 582.46875 560.402344 580.269531 556.578125 579.136719 L 556.578125 572.867188 C 556.578125 570.957031 555.03125 569.40625 553.121094 569.40625 L 540.929688 569.40625 C 539.019531 569.40625 537.46875 570.957031 537.46875 572.867188 L 537.46875 579.136719 C 531.734375 580.269531 527.140625 582.449219 522.613281 585.453125 L 518.03125 580.769531 C 516.683594 579.394531 514.46875 579.386719 513.113281 580.75 L 505.589844 588.320312 C 504.253906 589.664062 504.25 591.835938 505.582031 593.1875 L 510.433594 598.109375 C 507.476562 602.632812 505.371094 607.628906 504.265625 613.363281 L 496.976562 613.363281 C 495.0625 613.363281 493.515625 614.910156 493.515625 616.820312 L 493.515625 627.101562 C 493.515625 629.011719 495.0625 630.558594 496.976562 630.558594 L 504.34375 630.558594 C 505.488281 636.292969 507.648438 641.144531 510.617188 645.625 L 505.679688 650.59375 C 504.335938 651.945312 504.339844 654.125 505.6875 655.476562 L 513.234375 663.039062 C 514.605469 664.410156 516.835938 664.390625 518.179688 662.992188 L 522.835938 658.144531 C 527.3125 661.070312 531.734375 663.214844 537.46875 664.328125 L 537.46875 671.054688 C 537.46875 672.964844 539.019531 674.511719 540.929688 674.511719 L 553.121094 674.511719 C 555.03125 674.511719 556.578125 672.964844 556.578125 671.054688 L 556.578125 664.328125 C 560.402344 663.214844 566.609375 661.082031 571.085938 658.15625 L 575.824219 663.03125 C 577.171875 664.421875 579.398438 664.433594 580.761719 663.058594 L 588.234375 655.523438 C 589.570312 654.171875 589.570312 651.992188 588.226562 650.644531 L 583.234375 645.625 C 586.199219 641.148438 588.308594 636.292969 589.453125 630.5625 L 597.074219 630.5625 C 598.984375 630.5625 600.53125 629.011719 600.53125 627.101562 Z M 600.53125 627.101562 "/><path style=" stroke:none;fill-rule:nonzero;fill:#001f8e;fill-opacity:1;" d="M 553.121094 677.875 L 540.929688 677.875 C 537.167969 677.875 534.105469 674.816406 534.105469 671.054688 L 534.105469 667.011719 C 530.414062 666.042969 527.011719 664.59375 523.371094 662.441406 L 520.605469 665.324219 C 519.324219 666.65625 517.601562 667.398438 515.753906 667.417969 C 515.730469 667.417969 515.707031 667.417969 515.683594 667.417969 C 513.859375 667.417969 512.148438 666.710938 510.855469 665.417969 L 503.304688 657.851562 C 500.65625 655.203125 500.652344 650.882812 503.292969 648.222656 L 506.351562 645.144531 C 504.25 641.554688 502.703125 637.847656 501.667969 633.925781 L 496.976562 633.925781 C 493.214844 633.925781 490.152344 630.863281 490.152344 627.101562 L 490.152344 616.820312 C 490.152344 613.058594 493.214844 609.996094 496.976562 609.996094 L 501.570312 609.996094 C 502.59375 605.960938 504.117188 602.195312 506.191406 598.59375 L 503.1875 595.550781 C 500.570312 592.894531 500.578125 588.585938 503.203125 585.945312 L 510.726562 578.378906 C 512.023438 577.074219 513.742188 576.359375 515.589844 576.367188 C 517.425781 576.375 519.148438 577.101562 520.433594 578.417969 L 523.117188 581.15625 C 526.78125 578.976562 530.3125 577.464844 534.105469 576.460938 L 534.105469 572.867188 C 534.105469 569.105469 537.167969 566.042969 540.929688 566.042969 L 553.117188 566.042969 C 556.882812 566.042969 559.941406 569.105469 559.941406 572.867188 L 559.941406 576.664062 C 563.039062 577.679688 567.117188 579.210938 570.71875 581.191406 L 573.167969 578.589844 C 574.445312 577.234375 576.175781 576.472656 578.035156 576.449219 C 579.898438 576.410156 581.648438 577.132812 582.964844 578.453125 L 590.5 586.007812 C 593.136719 588.648438 593.148438 592.964844 590.519531 595.625 L 587.574219 598.597656 C 589.664062 602.222656 591.203125 605.988281 592.226562 609.996094 L 597.074219 609.996094 C 600.835938 609.996094 603.898438 613.058594 603.898438 616.820312 L 603.898438 627.101562 C 603.898438 630.863281 600.835938 633.925781 597.074219 633.925781 L 592.128906 633.925781 C 591.09375 637.886719 589.5625 641.589844 587.496094 645.140625 L 590.613281 648.273438 C 593.25 650.917969 593.253906 655.234375 590.621094 657.890625 L 583.148438 665.425781 C 581.855469 666.730469 580.136719 667.445312 578.304688 667.445312 C 578.292969 667.445312 578.28125 667.445312 578.269531 667.445312 C 576.421875 667.4375 574.695312 666.703125 573.410156 665.375 L 570.519531 662.402344 C 566.964844 664.339844 562.980469 665.824219 559.941406 666.8125 L 559.941406 671.054688 C 559.941406 674.816406 556.882812 677.875 553.121094 677.875 Z M 522.835938 654.78125 C 523.472656 654.78125 524.113281 654.960938 524.675781 655.328125 C 529.382812 658.40625 533.402344 660.109375 538.109375 661.027344 C 539.691406 661.335938 540.832031 662.71875 540.832031 664.328125 L 540.835938 671.050781 C 540.835938 671.105469 540.875 671.148438 540.929688 671.148438 L 553.117188 671.148438 C 553.171875 671.148438 553.214844 671.105469 553.214844 671.054688 L 553.214844 664.328125 C 553.214844 662.835938 554.199219 661.519531 555.636719 661.101562 C 558.242188 660.339844 564.789062 658.253906 569.246094 655.339844 C 570.59375 654.457031 572.378906 654.65625 573.5 655.8125 L 578.234375 660.6875 C 578.246094 660.699219 578.261719 660.71875 578.300781 660.71875 C 578.332031 660.710938 578.359375 660.699219 578.371094 660.6875 L 585.84375 653.152344 C 585.878906 653.117188 585.878906 653.058594 585.84375 653.019531 L 580.847656 648 C 579.71875 646.867188 579.546875 645.097656 580.425781 643.769531 C 583.277344 639.46875 585.148438 634.933594 586.152344 629.902344 C 586.46875 628.328125 587.847656 627.195312 589.453125 627.195312 L 597.074219 627.195312 C 597.128906 627.195312 597.167969 627.15625 597.167969 627.101562 L 597.167969 616.820312 C 597.167969 616.769531 597.125 616.726562 597.074219 616.726562 L 589.53125 616.726562 C 587.917969 616.726562 586.53125 615.582031 586.226562 614 C 585.25 608.9375 583.378906 604.34375 580.507812 599.949219 C 579.636719 598.621094 579.816406 596.867188 580.933594 595.738281 L 585.734375 590.890625 C 585.769531 590.855469 585.773438 590.796875 585.734375 590.761719 L 578.199219 583.203125 C 578.1875 583.191406 578.175781 583.183594 578.132812 583.175781 C 578.09375 583.175781 578.078125 583.195312 578.066406 583.207031 L 573.757812 587.777344 C 572.636719 588.96875 570.816406 589.175781 569.453125 588.273438 C 565.148438 585.421875 558.941406 583.34375 555.621094 582.359375 C 554.191406 581.9375 553.214844 580.625 553.214844 579.132812 L 553.214844 572.867188 C 553.214844 572.816406 553.171875 572.769531 553.121094 572.769531 L 540.929688 572.769531 C 540.878906 572.769531 540.835938 572.8125 540.835938 572.867188 L 540.832031 579.136719 C 540.832031 580.742188 539.695312 582.125 538.121094 582.433594 C 533.324219 583.386719 529.113281 585.179688 524.472656 588.253906 C 523.128906 589.144531 521.339844 588.957031 520.210938 587.804688 L 515.625 583.125 C 515.617188 583.113281 515.601562 583.097656 515.5625 583.097656 C 515.523438 583.097656 515.507812 583.113281 515.5 583.121094 L 507.976562 590.691406 C 507.941406 590.726562 507.941406 590.789062 507.976562 590.824219 L 512.832031 595.746094 C 513.941406 596.871094 514.117188 598.621094 513.25 599.949219 C 510.414062 604.289062 508.554688 608.886719 507.566406 614 C 507.261719 615.582031 505.878906 616.726562 504.265625 616.726562 L 496.976562 616.726562 C 496.921875 616.726562 496.878906 616.765625 496.878906 616.820312 L 496.878906 627.101562 C 496.878906 627.152344 496.921875 627.195312 496.976562 627.195312 L 504.34375 627.195312 C 505.945312 627.195312 507.328125 628.328125 507.640625 629.902344 C 508.628906 634.851562 510.519531 639.386719 513.421875 643.769531 C 514.300781 645.097656 514.128906 646.867188 513 647.996094 L 508.066406 652.964844 C 508.027344 653 508.027344 653.058594 508.066406 653.097656 L 515.617188 660.664062 C 515.625 660.671875 515.652344 660.683594 515.683594 660.691406 C 515.722656 660.691406 515.742188 660.671875 515.75 660.660156 L 520.410156 655.8125 C 521.0625 655.132812 521.945312 654.78125 522.835938 654.78125 Z M 522.835938 654.78125 "/><path style=" stroke:none;fill-rule:nonzero;fill:#001f8e;fill-opacity:1;" d="M 651.609375 651.414062 C 649.75 651.414062 648.246094 649.90625 648.246094 648.046875 L 648.246094 603.355469 L 636.757812 613.550781 C 635.367188 614.78125 633.242188 614.65625 632.007812 613.265625 C 630.773438 611.875 630.902344 609.75 632.292969 608.515625 L 649.375 593.355469 C 650.367188 592.480469 651.78125 592.261719 652.988281 592.804688 C 654.195312 593.347656 654.972656 594.550781 654.972656 595.875 L 654.972656 648.046875 C 654.972656 649.90625 653.46875 651.414062 651.609375 651.414062 Z M 651.609375 651.414062 "/><path style=" stroke:none;fill-rule:nonzero;fill:#001f8e;fill-opacity:1;" d="M 666.308594 651.410156 L 636.90625 651.410156 C 635.050781 651.410156 633.542969 649.90625 633.542969 648.046875 C 633.542969 646.1875 635.050781 644.683594 636.90625 644.683594 L 666.308594 644.683594 C 668.167969 644.683594 669.671875 646.1875 669.671875 648.046875 C 669.671875 649.90625 668.167969 651.410156 666.308594 651.410156 Z M 666.308594 651.410156 "/><path style=" stroke:none;fill-rule:nonzero;fill:#d9d9d9;fill-opacity:1;" d="M 539.886719 453.640625 L 539.886719 443.359375 C 539.886719 441.449219 541.433594 439.898438 543.34375 439.898438 L 550.886719 439.898438 C 551.992188 434.167969 554.136719 429.171875 557.09375 424.644531 L 552.292969 419.796875 C 550.953125 418.449219 550.957031 416.269531 552.300781 414.921875 L 559.835938 407.367188 C 561.214844 405.984375 563.460938 406.015625 564.800781 407.4375 L 569.109375 412.007812 C 573.640625 409.003906 580.015625 406.808594 583.839844 405.675781 L 583.839844 399.40625 C 583.839844 397.496094 585.386719 395.949219 587.296875 395.949219 L 599.488281 395.949219 C 601.398438 395.949219 602.949219 397.496094 602.949219 399.40625 L 602.949219 405.675781 C 608.679688 406.808594 613.273438 408.988281 617.804688 411.992188 L 622.386719 407.308594 C 623.734375 405.933594 625.949219 405.925781 627.304688 407.292969 L 634.828125 414.859375 C 636.164062 416.203125 636.167969 418.375 634.835938 419.726562 L 629.980469 424.644531 C 632.941406 429.171875 635.046875 434.167969 636.152344 439.898438 L 643.441406 439.898438 C 645.351562 439.898438 646.902344 441.449219 646.902344 443.359375 L 646.902344 453.640625 C 646.902344 455.550781 645.351562 457.097656 643.441406 457.097656 L 636.074219 457.097656 C 634.929688 462.832031 632.769531 467.683594 629.800781 472.164062 L 634.738281 477.132812 C 636.082031 478.484375 636.078125 480.667969 634.730469 482.015625 L 627.183594 489.578125 C 625.8125 490.953125 623.582031 490.929688 622.238281 489.53125 L 617.582031 484.683594 C 613.105469 487.609375 608.679688 489.753906 602.949219 490.871094 L 602.949219 497.59375 C 602.949219 499.503906 601.398438 501.050781 599.488281 501.050781 L 587.296875 501.050781 C 585.386719 501.050781 583.839844 499.503906 583.839844 497.59375 L 583.839844 490.871094 C 580.015625 489.753906 573.808594 487.621094 569.332031 484.695312 L 564.59375 489.570312 C 563.246094 490.960938 561.019531 490.972656 559.65625 489.597656 L 552.1875 482.058594 C 550.847656 480.710938 550.847656 478.53125 552.1875 477.1875 L 557.183594 472.164062 C 554.214844 467.683594 552.109375 462.832031 550.964844 457.097656 L 543.34375 457.097656 C 541.429688 457.097656 539.886719 455.550781 539.886719 453.640625 Z M 539.886719 453.640625 "/><path style=" stroke:none;fill-rule:nonzero;fill:#001f8e;fill-opacity:1;" d="M 599.488281 504.417969 L 587.296875 504.417969 C 583.535156 504.417969 580.472656 501.355469 580.472656 497.59375 L 580.472656 493.351562 C 577.4375 492.363281 573.453125 490.878906 569.894531 488.941406 L 567.007812 491.914062 C 565.71875 493.242188 563.992188 493.976562 562.144531 493.984375 C 560.300781 493.984375 558.566406 493.277344 557.265625 491.964844 L 549.796875 484.429688 C 547.164062 481.773438 547.167969 477.460938 549.804688 474.8125 L 552.921875 471.679688 C 550.851562 468.128906 549.320312 464.421875 548.289062 460.464844 L 543.34375 460.464844 C 539.582031 460.464844 536.519531 457.402344 536.519531 453.636719 L 536.519531 443.359375 C 536.519531 439.597656 539.582031 436.535156 543.34375 436.535156 L 548.195312 436.535156 C 549.214844 432.527344 550.753906 428.761719 552.84375 425.136719 L 549.902344 422.164062 C 547.269531 419.511719 547.277344 415.195312 549.917969 412.546875 L 557.453125 404.992188 C 558.765625 403.671875 560.523438 402.953125 562.378906 402.988281 C 564.242188 403.011719 565.96875 403.773438 567.246094 405.128906 L 569.699219 407.730469 C 573.300781 405.75 577.375 404.21875 580.472656 403.199219 L 580.472656 399.40625 C 580.472656 395.644531 583.535156 392.582031 587.296875 392.582031 L 599.488281 392.582031 C 603.25 392.582031 606.3125 395.644531 606.3125 399.40625 L 606.3125 403 C 610.105469 404.003906 613.636719 405.515625 617.296875 407.695312 L 619.984375 404.957031 C 621.273438 403.640625 622.992188 402.914062 624.832031 402.90625 C 626.675781 402.910156 628.398438 403.617188 629.691406 404.921875 L 637.210938 412.488281 C 639.839844 415.128906 639.847656 419.4375 637.226562 422.089844 L 634.226562 425.132812 C 636.296875 428.734375 637.824219 432.5 638.847656 436.535156 L 643.441406 436.535156 C 647.203125 436.535156 650.265625 439.597656 650.265625 443.359375 L 650.265625 453.636719 C 650.265625 457.402344 647.203125 460.460938 643.441406 460.460938 L 638.746094 460.460938 C 637.710938 464.386719 636.164062 468.09375 634.0625 471.683594 L 637.125 474.757812 C 639.769531 477.417969 639.761719 481.742188 637.109375 484.390625 L 629.5625 491.957031 C 628.257812 493.265625 626.507812 493.96875 624.671875 493.957031 C 622.820312 493.941406 621.09375 493.195312 619.8125 491.863281 L 617.046875 488.980469 C 613.40625 491.132812 610.003906 492.582031 606.3125 493.550781 L 606.3125 497.59375 C 606.3125 501.355469 603.25 504.417969 599.488281 504.417969 Z M 569.332031 481.332031 C 569.96875 481.332031 570.609375 481.511719 571.171875 481.878906 C 575.628906 484.792969 582.175781 486.878906 584.78125 487.640625 C 586.214844 488.058594 587.203125 489.375 587.203125 490.871094 L 587.203125 497.59375 C 587.203125 497.644531 587.246094 497.6875 587.296875 497.6875 L 599.488281 497.6875 C 599.539062 497.6875 599.582031 497.644531 599.582031 497.59375 L 599.582031 490.871094 C 599.582031 489.257812 600.722656 487.875 602.304688 487.566406 C 607.015625 486.648438 611.035156 484.945312 615.742188 481.867188 C 617.09375 480.980469 618.886719 481.1875 620.007812 482.351562 L 624.664062 487.203125 C 624.671875 487.210938 624.691406 487.230469 624.734375 487.230469 C 624.773438 487.230469 624.789062 487.210938 624.800781 487.203125 L 632.351562 479.636719 C 632.386719 479.597656 632.386719 479.539062 632.351562 479.503906 L 627.414062 474.535156 C 626.289062 473.402344 626.113281 471.636719 626.996094 470.304688 C 629.894531 465.929688 631.785156 461.394531 632.773438 456.441406 C 633.089844 454.867188 634.46875 453.734375 636.074219 453.734375 L 643.441406 453.734375 C 643.496094 453.734375 643.539062 453.691406 643.539062 453.640625 L 643.539062 443.359375 C 643.539062 443.308594 643.492188 443.265625 643.441406 443.265625 L 636.152344 443.265625 C 634.539062 443.265625 633.15625 442.121094 632.847656 440.535156 C 631.863281 435.425781 630.003906 430.828125 627.164062 426.488281 C 626.296875 425.160156 626.472656 423.410156 627.585938 422.28125 L 632.441406 417.363281 C 632.476562 417.324219 632.476562 417.265625 632.441406 417.230469 L 624.917969 409.664062 C 624.90625 409.652344 624.894531 409.636719 624.855469 409.636719 C 624.816406 409.636719 624.800781 409.652344 624.789062 409.664062 L 620.207031 414.34375 C 619.082031 415.496094 617.292969 415.6875 615.945312 414.796875 C 611.304688 411.71875 607.09375 409.925781 602.292969 408.972656 C 600.71875 408.664062 599.582031 407.28125 599.582031 405.671875 L 599.582031 399.40625 C 599.582031 399.351562 599.542969 399.3125 599.488281 399.3125 L 587.296875 399.3125 C 587.246094 399.3125 587.203125 399.355469 587.203125 399.40625 L 587.203125 405.671875 C 587.203125 407.164062 586.226562 408.476562 584.796875 408.898438 C 581.480469 409.882812 575.269531 411.960938 570.964844 414.8125 C 569.601562 415.714844 567.78125 415.507812 566.660156 414.3125 L 562.351562 409.746094 C 562.34375 409.734375 562.324219 409.714844 562.285156 409.714844 C 562.246094 409.714844 562.226562 409.730469 562.21875 409.742188 L 554.683594 417.296875 C 554.644531 417.332031 554.644531 417.390625 554.679688 417.429688 L 559.484375 422.277344 C 560.601562 423.40625 560.78125 425.160156 559.910156 426.488281 C 557.039062 430.882812 555.167969 435.476562 554.191406 440.535156 C 553.886719 442.121094 552.5 443.265625 550.886719 443.265625 L 543.34375 443.265625 C 543.292969 443.265625 543.25 443.304688 543.25 443.359375 L 543.25 453.636719 C 543.25 453.691406 543.289062 453.734375 543.34375 453.734375 L 550.964844 453.734375 C 552.570312 453.734375 553.949219 454.867188 554.265625 456.441406 C 555.265625 461.46875 557.140625 466.003906 559.988281 470.304688 C 560.871094 471.636719 560.695312 473.40625 559.570312 474.535156 L 554.574219 479.558594 C 554.539062 479.59375 554.539062 479.652344 554.574219 479.691406 L 562.046875 487.230469 C 562.058594 487.242188 562.070312 487.253906 562.113281 487.257812 C 562.152344 487.257812 562.171875 487.238281 562.183594 487.226562 L 566.917969 482.351562 C 567.570312 481.679688 568.449219 481.332031 569.332031 481.332031 Z M 569.332031 481.332031 "/><path style=" stroke:none;fill-rule:nonzero;fill:#001f8e;fill-opacity:1;" d="M 513.484375 477.949219 L 481.699219 477.949219 C 479.84375 477.949219 478.335938 476.445312 478.335938 474.585938 L 478.335938 460.328125 C 478.335938 451.949219 485.152344 445.132812 493.53125 445.132812 L 501.65625 445.132812 C 506.324219 445.132812 510.121094 441.335938 510.121094 436.667969 L 510.121094 434.242188 C 510.121094 429.574219 506.324219 425.777344 501.65625 425.777344 L 493.53125 425.777344 C 488.863281 425.777344 485.0625 429.574219 485.0625 434.242188 C 485.0625 436.101562 483.558594 437.605469 481.699219 437.605469 C 479.84375 437.605469 478.335938 436.101562 478.335938 434.242188 C 478.335938 425.863281 485.152344 419.046875 493.53125 419.046875 L 501.65625 419.046875 C 510.035156 419.046875 516.851562 425.863281 516.851562 434.242188 L 516.851562 436.667969 C 516.851562 445.046875 510.035156 451.863281 501.65625 451.863281 L 493.53125 451.863281 C 488.863281 451.863281 485.0625 455.660156 485.0625 460.328125 L 485.0625 471.222656 L 513.484375 471.222656 C 515.34375 471.222656 516.851562 472.726562 516.851562 474.585938 C 516.851562 476.445312 515.34375 477.949219 513.484375 477.949219 Z M 513.484375 477.949219 "/><path style=" stroke:none;fill-rule:nonzero;fill:#001f8e;fill-opacity:1;" d="M 588.261719 466.738281 C 588.226562 466.738281 588.191406 466.738281 588.152344 466.738281 C 587.152344 466.703125 586.214844 466.226562 585.601562 465.433594 L 570.484375 445.894531 C 569.347656 444.425781 569.617188 442.3125 571.085938 441.175781 C 572.554688 440.039062 574.667969 440.308594 575.804688 441.777344 L 588.433594 458.101562 L 611.121094 432.4375 C 612.351562 431.046875 614.480469 430.914062 615.871094 432.144531 C 617.261719 433.375 617.394531 435.5 616.164062 436.894531 L 590.785156 465.601562 C 590.144531 466.328125 589.226562 466.738281 588.261719 466.738281 Z M 588.261719 466.738281 "/><path style=" stroke:none;fill-rule:nonzero;fill:#001f8e;fill-opacity:1;" d="M 541.894531 639.179688 C 541.855469 639.179688 541.820312 639.175781 541.785156 639.175781 C 540.78125 639.144531 539.847656 638.664062 539.234375 637.871094 L 524.113281 618.335938 C 522.976562 616.867188 523.246094 614.753906 524.714844 613.617188 C 526.183594 612.476562 528.296875 612.746094 529.433594 614.21875 L 542.066406 630.539062 L 564.753906 604.875 C 565.984375 603.484375 568.109375 603.351562 569.5 604.585938 C 570.894531 605.816406 571.023438 607.941406 569.792969 609.332031 L 544.414062 638.042969 C 543.773438 638.765625 542.855469 639.179688 541.894531 639.179688 Z M 541.894531 639.179688 "/><path style=" stroke:none;fill-rule:nonzero;fill:#ffffff;fill-opacity:1;" d="M 984.308594 396.917969 C 990.984375 396.917969 996.394531 402.328125 996.394531 409.003906 L 996.394531 673.457031 C 996.394531 680.132812 990.984375 685.542969 984.308594 685.542969 L 783.789062 685.542969 C 773.773438 685.542969 765.65625 677.429688 765.65625 667.414062 L 765.65625 409 C 765.65625 402.328125 771.070312 396.917969 777.742188 396.917969 Z M 984.308594 396.917969 "/><path style=" stroke:none;fill-rule:nonzero;fill:#001f8e;fill-opacity:1;" d="M 984.308594 688.910156 L 783.789062 688.910156 C 771.9375 688.910156 762.292969 679.265625 762.292969 667.414062 L 762.292969 409.003906 C 762.292969 400.484375 769.222656 393.550781 777.742188 393.550781 L 984.308594 393.550781 C 992.828125 393.550781 999.757812 400.484375 999.757812 409.003906 L 999.757812 673.457031 C 999.761719 681.976562 992.828125 688.910156 984.308594 688.910156 Z M 777.742188 400.28125 C 772.933594 400.28125 769.023438 404.191406 769.023438 409 L 769.023438 667.414062 C 769.023438 675.558594 775.644531 682.179688 783.789062 682.179688 L 984.308594 682.179688 C 989.117188 682.179688 993.03125 678.265625 993.03125 673.457031 L 993.03125 409 C 993.03125 404.191406 989.117188 400.28125 984.308594 400.28125 Z M 777.742188 400.28125 "/><path style=" stroke:none;fill-rule:nonzero;fill:#d9d9d9;fill-opacity:1;" d="M 765.65625 409 C 765.65625 402.328125 771.070312 396.917969 777.742188 396.917969 L 984.308594 396.917969 C 990.984375 396.917969 996.394531 402.328125 996.394531 409.003906 L 996.394531 486.121094 L 765.65625 486.121094 Z M 765.65625 409 "/><path style=" stroke:none;fill-rule:nonzero;fill:#001f8e;fill-opacity:1;" d="M 996.394531 489.484375 L 765.65625 489.484375 C 763.800781 489.484375 762.292969 487.980469 762.292969 486.121094 L 762.292969 409.003906 C 762.292969 400.484375 769.222656 393.550781 777.742188 393.550781 L 984.308594 393.550781 C 992.828125 393.550781 999.757812 400.484375 999.757812 409.003906 L 999.757812 486.121094 C 999.761719 487.980469 998.253906 489.484375 996.394531 489.484375 Z M 769.023438 482.757812 L 993.03125 482.757812 L 993.03125 409.003906 C 993.03125 404.191406 989.117188 400.28125 984.308594 400.28125 L 777.742188 400.28125 C 772.933594 400.28125 769.023438 404.191406 769.023438 409 Z M 769.023438 482.757812 "/><path style=" stroke:none;fill-rule:nonzero;fill:#001f8e;fill-opacity:1;" d="M 927.207031 464.875 C 925.351562 464.875 923.84375 463.367188 923.84375 461.511719 L 923.84375 423.589844 C 923.84375 422.21875 924.351562 420.976562 925.3125 420.003906 C 926.273438 419.035156 927.554688 418.503906 928.925781 418.503906 C 930.46875 418.503906 931.855469 419.15625 932.828125 420.34375 C 932.859375 420.378906 932.886719 420.414062 932.914062 420.453125 L 955.667969 450.582031 L 955.667969 421.726562 C 955.667969 419.871094 957.175781 418.363281 959.035156 418.363281 C 960.890625 418.363281 962.398438 419.871094 962.398438 421.726562 L 962.398438 460.617188 C 962.398438 462.0625 961.472656 463.347656 960.101562 463.808594 C 958.734375 464.265625 957.222656 463.800781 956.347656 462.644531 L 930.574219 428.515625 L 930.574219 461.511719 C 930.574219 463.367188 929.066406 464.875 927.207031 464.875 Z M 927.207031 464.875 "/><path style=" stroke:none;fill-rule:nonzero;fill:#001f8e;fill-opacity:1;" d="M 803.882812 464.875 C 802.027344 464.875 800.519531 463.367188 800.519531 461.511719 L 800.519531 423.40625 C 800.519531 422.039062 801.023438 420.808594 801.976562 419.847656 C 802.945312 418.875 804.1875 418.363281 805.574219 418.363281 L 814.683594 418.363281 C 819.542969 418.363281 823.714844 420.0625 827.089844 423.417969 C 830.546875 426.742188 832.296875 430.855469 832.296875 435.648438 C 832.296875 440.410156 830.542969 444.535156 827.089844 447.914062 C 823.671875 451.25 819.496094 452.941406 814.683594 452.941406 L 807.246094 452.941406 L 807.246094 461.511719 C 807.246094 463.367188 805.742188 464.875 803.882812 464.875 Z M 807.246094 446.210938 L 814.683594 446.210938 C 817.722656 446.210938 820.242188 445.191406 822.386719 443.097656 C 824.527344 441.007812 825.570312 438.570312 825.570312 435.648438 C 825.570312 432.710938 824.535156 430.289062 822.410156 428.253906 C 822.394531 428.238281 822.378906 428.222656 822.359375 428.207031 C 820.261719 426.109375 817.75 425.089844 814.683594 425.089844 L 807.246094 425.089844 Z M 807.246094 446.210938 "/><path style=" stroke:none;fill-rule:nonzero;fill:#001f8e;fill-opacity:1;" d="M 880.09375 465.308594 C 879.644531 465.308594 879.1875 465.21875 878.746094 465.027344 C 877.042969 464.28125 876.269531 462.296875 877.011719 460.59375 L 894.230469 421.25 C 894.761719 420.035156 895.957031 419.246094 897.28125 419.234375 C 898.597656 419.226562 899.816406 419.988281 900.371094 421.191406 L 918.46875 460.539062 C 919.242188 462.226562 918.503906 464.222656 916.816406 465 C 915.128906 465.777344 913.132812 465.039062 912.355469 463.351562 L 907.566406 452.941406 L 887.707031 452.941406 L 883.179688 463.292969 C 882.625 464.554688 881.390625 465.308594 880.09375 465.308594 Z M 890.652344 446.210938 L 904.46875 446.210938 L 897.390625 430.816406 Z M 890.652344 446.210938 "/><path style=" stroke:none;fill-rule:nonzero;fill:#001f8e;fill-opacity:1;" d="M 867.53125 464.875 L 843.667969 464.875 C 841.808594 464.875 840.300781 463.367188 840.300781 461.511719 L 840.300781 421.726562 C 840.300781 419.871094 841.808594 418.363281 843.667969 418.363281 C 845.523438 418.363281 847.03125 419.871094 847.03125 421.726562 L 847.03125 458.144531 L 867.53125 458.144531 C 869.390625 458.144531 870.894531 459.652344 870.894531 461.511719 C 870.894531 463.367188 869.390625 464.875 867.53125 464.875 Z M 867.53125 464.875 "/><path style=" stroke:none;fill-rule:nonzero;fill:#001f8e;fill-opacity:1;" d="M 826.714844 571.882812 C 824.859375 571.882812 823.351562 570.375 823.351562 568.519531 L 823.351562 533.210938 L 811.039062 548.273438 C 809.863281 549.714844 807.746094 549.925781 806.308594 548.75 C 804.867188 547.574219 804.65625 545.457031 805.832031 544.019531 L 824.109375 521.644531 C 825.011719 520.542969 826.507812 520.128906 827.84375 520.605469 C 829.183594 521.082031 830.078125 522.351562 830.078125 523.773438 L 830.078125 568.519531 C 830.078125 570.375 828.574219 571.882812 826.714844 571.882812 Z M 826.714844 571.882812 "/><path style=" stroke:none;fill-rule:nonzero;fill:#001f8e;fill-opacity:1;" d="M 840.535156 645.800781 L 814.308594 645.800781 C 812.878906 645.800781 811.605469 644.898438 811.132812 643.550781 C 810.660156 642.203125 811.089844 640.703125 812.207031 639.8125 L 812.394531 639.660156 C 817.4375 635.582031 822.050781 631.085938 826.105469 626.296875 C 831.105469 620.378906 836.558594 612.828125 834.289062 606.898438 C 833.480469 604.78125 831.484375 601.207031 827.226562 601.0625 C 823.441406 600.941406 819.914062 602.660156 817.625 604.125 C 816.058594 605.125 813.976562 604.671875 812.976562 603.105469 C 811.976562 601.542969 812.429688 599.460938 813.996094 598.457031 C 817.089844 596.476562 821.9375 594.148438 827.453125 594.339844 C 833.398438 594.539062 838.183594 598.238281 840.574219 604.496094 C 844.554688 614.898438 835.226562 625.929688 831.242188 630.640625 C 828.769531 633.5625 826.101562 636.382812 823.269531 639.074219 L 840.535156 639.074219 C 842.394531 639.074219 843.902344 640.578125 843.902344 642.4375 C 843.902344 644.292969 842.394531 645.800781 840.535156 645.800781 Z M 840.535156 645.800781 "/><path style=" stroke:none;fill-rule:nonzero;fill:#001f8e;fill-opacity:1;" d="M 950.714844 561.339844 L 864.597656 561.339844 C 862.738281 561.339844 861.230469 559.832031 861.230469 557.976562 C 861.230469 556.117188 862.738281 554.609375 864.597656 554.609375 L 950.714844 554.609375 C 952.574219 554.609375 954.082031 556.117188 954.082031 557.976562 C 954.082031 559.832031 952.574219 561.339844 950.714844 561.339844 Z M 950.714844 561.339844 "/><path style=" stroke:none;fill-rule:nonzero;fill:#001f8e;fill-opacity:1;" d="M 950.714844 535.441406 L 864.597656 535.441406 C 862.738281 535.441406 861.230469 533.933594 861.230469 532.074219 C 861.230469 530.21875 862.738281 528.710938 864.597656 528.710938 L 950.714844 528.710938 C 952.574219 528.710938 954.082031 530.21875 954.082031 532.074219 C 954.082031 533.933594 952.574219 535.441406 950.714844 535.441406 Z M 950.714844 535.441406 "/><path style=" stroke:none;fill-rule:nonzero;fill:#001f8e;fill-opacity:1;" d="M 950.714844 636.378906 L 864.597656 636.378906 C 862.738281 636.378906 861.230469 634.871094 861.230469 633.015625 C 861.230469 631.15625 862.738281 629.648438 864.597656 629.648438 L 950.714844 629.648438 C 952.574219 629.648438 954.082031 631.15625 954.082031 633.015625 C 954.082031 634.871094 952.574219 636.378906 950.714844 636.378906 Z M 950.714844 636.378906 "/><path style=" stroke:none;fill-rule:nonzero;fill:#001f8e;fill-opacity:1;" d="M 950.714844 610.480469 L 864.597656 610.480469 C 862.738281 610.480469 861.230469 608.972656 861.230469 607.117188 C 861.230469 605.257812 862.738281 603.75 864.597656 603.75 L 950.714844 603.75 C 952.574219 603.75 954.082031 605.257812 954.082031 607.117188 C 954.082031 608.972656 952.574219 610.480469 950.714844 610.480469 Z M 950.714844 610.480469 "/><path style=" stroke:none;fill-rule:nonzero;fill:#ffffff;fill-opacity:1;" d="M 584.601562 133.492188 L 584.105469 133.492188 L 584.105469 359.101562 L 881.691406 359.101562 L 881.691406 133.613281 C 881.691406 133.613281 578.765625 132.890625 584.601562 133.492188 Z M 584.601562 133.492188 "/><path style=" stroke:none;fill-rule:nonzero;fill:#001f8e;fill-opacity:1;" d="M 881.691406 362.464844 L 584.105469 362.464844 C 582.246094 362.464844 580.742188 360.960938 580.742188 359.101562 L 580.742188 133.492188 C 580.742188 131.636719 582.246094 130.128906 584.105469 130.128906 L 584.164062 130.128906 C 584.285156 130.109375 584.410156 130.097656 584.539062 130.089844 C 584.707031 130.082031 584.957031 130.070312 585.28125 130.0625 C 585.863281 130.046875 586.691406 130.03125 587.820312 130.019531 C 589.949219 129.992188 593.132812 129.972656 597.28125 129.953125 C 604.992188 129.921875 616.324219 129.898438 630.964844 129.890625 C 655.617188 129.878906 689.984375 129.90625 733.121094 129.964844 C 806.5625 130.070312 880.957031 130.246094 881.699219 130.25 C 883.554688 130.253906 885.054688 131.757812 885.054688 133.613281 L 885.054688 359.101562 C 885.054688 360.960938 883.546875 362.464844 881.691406 362.464844 Z M 587.46875 355.738281 L 878.324219 355.738281 L 878.324219 136.96875 C 811.925781 136.8125 708.484375 136.617188 643.785156 136.617188 C 615.492188 136.617188 594.621094 136.652344 587.46875 136.75 Z M 584.945312 130.144531 C 584.949219 130.144531 584.953125 130.148438 584.957031 130.148438 C 584.953125 130.148438 584.949219 130.144531 584.945312 130.144531 Z M 584.945312 130.144531 "/><path style=" stroke:none;fill-rule:nonzero;fill:#d9d9d9;fill-opacity:1;" d="M 728.242188 246.839844 C 730.019531 252.695312 730.972656 258.910156 730.972656 265.347656 C 730.972656 300.53125 702.449219 329.058594 667.261719 329.058594 C 632.082031 329.058594 603.554688 300.53125 603.554688 265.347656 C 603.554688 230.160156 632.082031 201.640625 667.261719 201.640625 C 686.753906 201.640625 704.203125 210.390625 715.886719 224.179688 Z M 728.242188 246.839844 "/><path style=" stroke:none;fill-rule:nonzero;fill:#001f8e;fill-opacity:1;" d="M 667.261719 332.421875 C 649.347656 332.421875 632.503906 325.445312 619.835938 312.777344 C 607.167969 300.105469 600.191406 283.261719 600.191406 265.347656 C 600.191406 247.433594 607.167969 230.589844 619.835938 217.921875 C 632.503906 205.253906 649.347656 198.277344 667.261719 198.277344 C 687.015625 198.277344 705.671875 206.925781 718.453125 222.003906 C 719.65625 223.421875 719.480469 225.546875 718.0625 226.746094 C 716.644531 227.949219 714.523438 227.773438 713.320312 226.355469 C 701.820312 212.785156 685.035156 205.003906 667.261719 205.003906 C 633.988281 205.003906 606.917969 232.074219 606.917969 265.347656 C 606.917969 298.621094 633.988281 325.691406 667.261719 325.691406 C 700.535156 325.691406 727.605469 298.621094 727.605469 265.347656 C 727.605469 259.371094 726.738281 253.472656 725.023438 247.816406 C 724.484375 246.039062 725.488281 244.160156 727.265625 243.621094 C 729.042969 243.082031 730.921875 244.085938 731.460938 245.863281 C 733.367188 252.152344 734.335938 258.707031 734.335938 265.347656 C 734.335938 283.265625 727.359375 300.105469 714.691406 312.777344 C 702.023438 325.445312 685.179688 332.421875 667.261719 332.421875 Z M 667.261719 332.421875 "/><path style=" stroke:none;fill-rule:nonzero;fill:#ffffff;fill-opacity:1;" d="M 699.117188 265.347656 C 699.117188 266.390625 699.066406 267.433594 698.964844 268.46875 C 698.863281 269.507812 698.710938 270.539062 698.507812 271.5625 C 698.300781 272.585938 698.050781 273.597656 697.746094 274.59375 C 697.445312 275.59375 697.09375 276.574219 696.695312 277.539062 C 696.292969 278.503906 695.847656 279.445312 695.355469 280.363281 C 694.867188 281.285156 694.328125 282.179688 693.75 283.046875 C 693.171875 283.914062 692.550781 284.75 691.886719 285.554688 C 691.226562 286.363281 690.527344 287.132812 689.789062 287.871094 C 689.050781 288.609375 688.277344 289.308594 687.472656 289.972656 C 686.664062 290.632812 685.828125 291.253906 684.960938 291.832031 C 684.09375 292.414062 683.199219 292.949219 682.28125 293.441406 C 681.359375 293.933594 680.417969 294.378906 679.453125 294.777344 C 678.492188 295.175781 677.507812 295.527344 676.511719 295.832031 C 675.511719 296.132812 674.5 296.386719 673.480469 296.589844 C 672.457031 296.792969 671.425781 296.945312 670.386719 297.050781 C 669.347656 297.152344 668.308594 297.203125 667.265625 297.203125 C 666.222656 297.203125 665.179688 297.152344 664.140625 297.050781 C 663.105469 296.945312 662.074219 296.792969 661.050781 296.589844 C 660.027344 296.386719 659.015625 296.132812 658.015625 295.832031 C 657.019531 295.527344 656.039062 295.175781 655.074219 294.777344 C 654.109375 294.378906 653.167969 293.933594 652.25 293.441406 C 651.328125 292.949219 650.433594 292.414062 649.566406 291.832031 C 648.699219 291.253906 647.863281 290.632812 647.054688 289.972656 C 646.25 289.308594 645.476562 288.609375 644.738281 287.871094 C 644.003906 287.132812 643.300781 286.363281 642.640625 285.554688 C 641.980469 284.75 641.359375 283.914062 640.777344 283.046875 C 640.199219 282.179688 639.664062 281.285156 639.171875 280.363281 C 638.679688 279.445312 638.234375 278.503906 637.835938 277.539062 C 637.4375 276.574219 637.085938 275.59375 636.78125 274.59375 C 636.480469 273.597656 636.226562 272.585938 636.023438 271.5625 C 635.820312 270.539062 635.664062 269.507812 635.5625 268.46875 C 635.460938 267.433594 635.410156 266.390625 635.410156 265.347656 C 635.410156 264.304688 635.460938 263.265625 635.5625 262.226562 C 635.664062 261.1875 635.820312 260.15625 636.023438 259.132812 C 636.226562 258.109375 636.480469 257.101562 636.78125 256.101562 C 637.085938 255.101562 637.4375 254.121094 637.835938 253.15625 C 638.234375 252.195312 638.679688 251.253906 639.171875 250.332031 C 639.664062 249.414062 640.199219 248.519531 640.777344 247.652344 C 641.359375 246.785156 641.980469 245.945312 642.640625 245.140625 C 643.300781 244.332031 644.003906 243.5625 644.738281 242.824219 C 645.476562 242.085938 646.25 241.386719 647.054688 240.726562 C 647.863281 240.0625 648.699219 239.441406 649.566406 238.863281 C 650.433594 238.28125 651.328125 237.746094 652.25 237.253906 C 653.167969 236.761719 654.109375 236.316406 655.074219 235.917969 C 656.039062 235.519531 657.019531 235.167969 658.015625 234.867188 C 659.015625 234.5625 660.027344 234.308594 661.050781 234.105469 C 662.074219 233.902344 663.105469 233.75 664.140625 233.648438 C 665.179688 233.546875 666.222656 233.492188 667.265625 233.492188 C 668.308594 233.492188 669.347656 233.546875 670.386719 233.648438 C 671.425781 233.75 672.457031 233.902344 673.480469 234.105469 C 674.5 234.308594 675.511719 234.5625 676.511719 234.867188 C 677.507812 235.167969 678.492188 235.519531 679.453125 235.917969 C 680.417969 236.316406 681.359375 236.761719 682.28125 237.253906 C 683.199219 237.746094 684.09375 238.28125 684.960938 238.863281 C 685.828125 239.441406 686.664062 240.0625 687.472656 240.726562 C 688.277344 241.386719 689.050781 242.085938 689.789062 242.824219 C 690.527344 243.5625 691.226562 244.332031 691.886719 245.140625 C 692.550781 245.945312 693.171875 246.785156 693.75 247.652344 C 694.328125 248.519531 694.867188 249.414062 695.355469 250.332031 C 695.847656 251.253906 696.292969 252.195312 696.695312 253.15625 C 697.09375 254.121094 697.445312 255.101562 697.746094 256.101562 C 698.050781 257.101562 698.300781 258.109375 698.507812 259.132812 C 698.710938 260.15625 698.863281 261.1875 698.964844 262.226562 C 699.066406 263.265625 699.117188 264.304688 699.117188 265.347656 Z M 699.117188 265.347656 "/><path style=" stroke:none;fill-rule:nonzero;fill:#001f8e;fill-opacity:1;" d="M 667.265625 300.566406 C 647.84375 300.566406 632.046875 284.769531 632.046875 265.347656 C 632.046875 245.929688 647.84375 230.128906 667.265625 230.128906 C 686.683594 230.128906 702.484375 245.929688 702.484375 265.347656 C 702.484375 284.769531 686.683594 300.566406 667.265625 300.566406 Z M 667.265625 236.859375 C 651.554688 236.859375 638.773438 249.640625 638.773438 265.347656 C 638.773438 281.058594 651.554688 293.839844 667.265625 293.839844 C 682.972656 293.839844 695.753906 281.058594 695.753906 265.347656 C 695.753906 249.640625 682.972656 236.859375 667.265625 236.859375 Z M 667.265625 236.859375 "/><path style=" stroke:none;fill-rule:nonzero;fill:#ffffff;fill-opacity:1;" d="M 667.265625 265.347656 L 707.984375 243.183594 Z M 667.265625 265.347656 "/><path style=" stroke:none;fill-rule:nonzero;fill:#001f8e;fill-opacity:1;" d="M 667.265625 268.714844 C 666.074219 268.714844 664.917969 268.078125 664.308594 266.957031 C 663.421875 265.324219 664.023438 263.28125 665.65625 262.394531 L 706.375 240.226562 C 708.007812 239.339844 710.050781 239.941406 710.9375 241.574219 C 711.824219 243.207031 711.222656 245.25 709.589844 246.136719 L 668.871094 268.304688 C 668.363281 268.582031 667.8125 268.714844 667.265625 268.714844 Z M 667.265625 268.714844 "/><path style=" stroke:none;fill-rule:nonzero;fill:#ffffff;fill-opacity:1;" d="M 722.066406 250.1875 L 707.964844 243.171875 L 709.738281 227.519531 L 742.488281 209.710938 L 742.699219 224.285156 L 754.816406 232.378906 Z M 722.066406 250.1875 "/><path style=" stroke:none;fill-rule:nonzero;fill:#001f8e;fill-opacity:1;" d="M 722.066406 253.550781 C 721.554688 253.550781 721.039062 253.433594 720.566406 253.199219 L 706.464844 246.183594 C 705.199219 245.554688 704.460938 244.199219 704.621094 242.792969 L 706.394531 227.140625 C 706.519531 226.050781 707.167969 225.089844 708.132812 224.566406 L 740.882812 206.753906 C 741.917969 206.191406 743.171875 206.210938 744.1875 206.804688 C 745.207031 207.402344 745.835938 208.484375 745.855469 209.660156 L 746.039062 222.46875 L 756.683594 229.582031 C 757.664062 230.238281 758.230469 231.355469 758.175781 232.53125 C 758.125 233.710938 757.457031 234.773438 756.421875 235.335938 L 723.671875 253.144531 C 723.171875 253.414062 722.621094 253.550781 722.066406 253.550781 Z M 711.570312 241.210938 L 721.996094 246.394531 L 748.316406 232.085938 L 740.832031 227.082031 C 739.910156 226.46875 739.351562 225.4375 739.335938 224.332031 L 739.207031 215.324219 L 712.882812 229.640625 Z M 711.570312 241.210938 "/><path style=" stroke:none;fill-rule:nonzero;fill:#001f8e;fill-opacity:1;" d="M 830.46875 282.550781 C 830.085938 282.550781 829.691406 282.484375 829.308594 282.34375 C 827.566406 281.699219 826.671875 279.765625 827.3125 278.023438 C 835.269531 256.410156 833.019531 231.675781 821.289062 211.855469 C 820.339844 210.253906 820.871094 208.191406 822.46875 207.246094 C 824.066406 206.300781 826.132812 206.828125 827.078125 208.429688 C 833.300781 218.941406 837.191406 231.125 838.335938 243.660156 C 839.476562 256.199219 837.847656 268.882812 833.628906 280.347656 C 833.128906 281.707031 831.839844 282.550781 830.46875 282.550781 Z M 830.46875 282.550781 "/><path style=" stroke:none;fill-rule:nonzero;fill:#001f8e;fill-opacity:1;" d="M 818.921875 229.015625 C 818.5625 229.015625 818.195312 228.957031 817.835938 228.835938 C 816.078125 228.238281 815.136719 226.324219 815.734375 224.566406 L 821.019531 209.058594 C 821.320312 208.179688 821.96875 207.460938 822.816406 207.078125 C 823.664062 206.695312 824.628906 206.679688 825.488281 207.035156 L 842.09375 213.898438 C 843.8125 214.605469 844.628906 216.574219 843.917969 218.289062 C 843.207031 220.007812 841.242188 220.824219 839.523438 220.113281 L 826.230469 214.621094 L 822.105469 226.734375 C 821.628906 228.136719 820.320312 229.015625 818.921875 229.015625 Z M 818.921875 229.015625 "/><path style=" stroke:none;fill-rule:nonzero;fill:#ffffff;fill-opacity:1;" d="M 688.242188 184.691406 C 704.519531 168.796875 728.964844 160.882812 751.574219 163.460938 Z M 688.242188 184.691406 "/><path style=" stroke:none;fill-rule:nonzero;fill:#001f8e;fill-opacity:1;" d="M 688.242188 188.054688 C 687.367188 188.054688 686.492188 187.71875 685.832031 187.042969 C 684.535156 185.714844 684.5625 183.582031 685.890625 182.285156 C 702.6875 165.878906 728 157.386719 751.953125 160.121094 C 753.800781 160.332031 755.125 161.996094 754.914062 163.84375 C 754.703125 165.691406 753.039062 167.019531 751.191406 166.804688 C 729.199219 164.296875 705.980469 172.070312 690.589844 187.097656 C 689.9375 187.738281 689.089844 188.054688 688.242188 188.054688 Z M 688.242188 188.054688 "/><path style=" stroke:none;fill-rule:nonzero;fill:#001f8e;fill-opacity:1;" d="M 704.558594 189.496094 C 704.457031 189.496094 704.359375 189.488281 704.253906 189.480469 L 687.9375 188.019531 C 687.011719 187.9375 686.164062 187.476562 685.589844 186.746094 C 685.015625 186.011719 684.773438 185.078125 684.914062 184.160156 L 687.644531 166.402344 C 687.929688 164.566406 689.644531 163.304688 691.484375 163.585938 C 693.320312 163.871094 694.578125 165.589844 694.296875 167.425781 L 692.109375 181.640625 L 704.855469 182.777344 C 706.707031 182.945312 708.070312 184.578125 707.90625 186.429688 C 707.75 188.179688 706.28125 189.496094 704.558594 189.496094 Z M 704.558594 189.496094 "/><path style=" stroke:none;fill-rule:nonzero;fill:#ffffff;fill-opacity:1;" d="M 799.246094 180.679688 L 773.535156 206.390625 Z M 799.246094 180.679688 "/><path style=" stroke:none;fill-rule:nonzero;fill:#001f8e;fill-opacity:1;" d="M 773.535156 209.753906 C 772.675781 209.753906 771.8125 209.425781 771.15625 208.769531 C 769.84375 207.453125 769.84375 205.324219 771.15625 204.011719 L 796.867188 178.300781 C 798.179688 176.988281 800.3125 176.988281 801.625 178.300781 C 802.9375 179.613281 802.9375 181.746094 801.625 183.058594 L 775.914062 208.769531 C 775.257812 209.425781 774.398438 209.753906 773.535156 209.753906 Z M 773.535156 209.753906 "/><path style=" stroke:none;fill-rule:nonzero;fill:#ffffff;fill-opacity:1;" d="M 799.246094 206.390625 L 773.535156 180.679688 Z M 799.246094 206.390625 "/><path style=" stroke:none;fill-rule:nonzero;fill:#001f8e;fill-opacity:1;" d="M 799.246094 209.753906 C 798.386719 209.753906 797.523438 209.425781 796.867188 208.769531 L 771.15625 183.058594 C 769.84375 181.746094 769.84375 179.613281 771.15625 178.300781 C 772.472656 176.988281 774.601562 176.988281 775.914062 178.300781 L 801.625 204.011719 C 802.9375 205.324219 802.9375 207.453125 801.625 208.769531 C 800.96875 209.425781 800.105469 209.753906 799.246094 209.753906 Z M 799.246094 209.753906 "/><path style=" stroke:none;fill-rule:nonzero;fill:#6cdcff;fill-opacity:1;" d="M 822.5625 305.585938 C 822.5625 306.503906 822.515625 307.417969 822.425781 308.332031 C 822.335938 309.246094 822.199219 310.15625 822.023438 311.054688 C 821.84375 311.957031 821.621094 312.847656 821.351562 313.726562 C 821.085938 314.605469 820.777344 315.46875 820.425781 316.316406 C 820.074219 317.164062 819.683594 317.996094 819.25 318.804688 C 818.816406 319.613281 818.34375 320.402344 817.835938 321.164062 C 817.324219 321.929688 816.777344 322.667969 816.195312 323.375 C 815.613281 324.085938 814.996094 324.765625 814.347656 325.414062 C 813.699219 326.066406 813.019531 326.679688 812.308594 327.261719 C 811.597656 327.847656 810.859375 328.394531 810.097656 328.902344 C 809.332031 329.414062 808.546875 329.886719 807.738281 330.316406 C 806.925781 330.75 806.097656 331.144531 805.25 331.496094 C 804.398438 331.847656 803.535156 332.15625 802.65625 332.421875 C 801.777344 332.6875 800.890625 332.910156 799.988281 333.089844 C 799.085938 333.269531 798.179688 333.402344 797.265625 333.496094 C 796.351562 333.585938 795.433594 333.628906 794.515625 333.628906 C 793.597656 333.628906 792.683594 333.585938 791.769531 333.496094 C 790.855469 333.402344 789.945312 333.269531 789.046875 333.089844 C 788.144531 332.910156 787.253906 332.6875 786.375 332.421875 C 785.496094 332.15625 784.632812 331.847656 783.785156 331.496094 C 782.9375 331.144531 782.105469 330.75 781.296875 330.316406 C 780.488281 329.886719 779.699219 329.414062 778.9375 328.902344 C 778.171875 328.394531 777.4375 327.847656 776.726562 327.261719 C 776.015625 326.679688 775.335938 326.066406 774.6875 325.414062 C 774.035156 324.765625 773.421875 324.085938 772.839844 323.375 C 772.253906 322.667969 771.710938 321.929688 771.199219 321.164062 C 770.6875 320.402344 770.21875 319.613281 769.785156 318.804688 C 769.351562 317.996094 768.957031 317.164062 768.605469 316.316406 C 768.257812 315.46875 767.945312 314.605469 767.679688 313.726562 C 767.414062 312.847656 767.191406 311.957031 767.011719 311.054688 C 766.832031 310.15625 766.699219 309.25 766.609375 308.332031 C 766.519531 307.417969 766.472656 306.503906 766.472656 305.585938 C 766.472656 304.667969 766.519531 303.75 766.609375 302.835938 C 766.699219 301.921875 766.832031 301.015625 767.011719 300.113281 C 767.191406 299.214844 767.414062 298.324219 767.679688 297.445312 C 767.945312 296.566406 768.257812 295.703125 768.605469 294.851562 C 768.957031 294.003906 769.351562 293.175781 769.785156 292.367188 C 770.21875 291.554688 770.6875 290.769531 771.199219 290.003906 C 771.710938 289.242188 772.253906 288.503906 772.839844 287.792969 C 773.421875 287.085938 774.035156 286.40625 774.6875 285.753906 C 775.335938 285.105469 776.015625 284.488281 776.726562 283.90625 C 777.4375 283.324219 778.171875 282.777344 778.9375 282.265625 C 779.699219 281.757812 780.488281 281.285156 781.296875 280.851562 C 782.105469 280.417969 782.9375 280.027344 783.785156 279.675781 C 784.632812 279.324219 785.496094 279.015625 786.375 278.75 C 787.253906 278.480469 788.144531 278.257812 789.046875 278.078125 C 789.945312 277.902344 790.855469 277.765625 791.769531 277.675781 C 792.683594 277.585938 793.597656 277.542969 794.515625 277.542969 C 795.433594 277.542969 796.351562 277.585938 797.265625 277.675781 C 798.179688 277.765625 799.085938 277.902344 799.988281 278.078125 C 800.890625 278.257812 801.777344 278.480469 802.65625 278.75 C 803.535156 279.015625 804.398438 279.324219 805.25 279.675781 C 806.097656 280.027344 806.925781 280.417969 807.738281 280.851562 C 808.546875 281.285156 809.332031 281.757812 810.097656 282.265625 C 810.859375 282.777344 811.597656 283.324219 812.308594 283.90625 C 813.019531 284.488281 813.699219 285.105469 814.347656 285.753906 C 814.996094 286.40625 815.613281 287.085938 816.195312 287.792969 C 816.777344 288.503906 817.324219 289.242188 817.835938 290.003906 C 818.34375 290.769531 818.816406 291.554688 819.25 292.367188 C 819.683594 293.175781 820.074219 294.003906 820.425781 294.851562 C 820.777344 295.703125 821.085938 296.566406 821.351562 297.445312 C 821.621094 298.324219 821.84375 299.214844 822.023438 300.113281 C 822.199219 301.015625 822.335938 301.921875 822.425781 302.835938 C 822.515625 303.75 822.5625 304.667969 822.5625 305.585938 Z M 822.5625 305.585938 "/><path style=" stroke:none;fill-rule:nonzero;fill:#001f8e;fill-opacity:1;" d="M 794.515625 336.992188 C 777.199219 336.992188 763.109375 322.902344 763.109375 305.585938 C 763.109375 288.265625 777.199219 274.175781 794.515625 274.175781 C 811.835938 274.175781 825.925781 288.265625 825.925781 305.585938 C 825.925781 322.902344 811.835938 336.992188 794.515625 336.992188 Z M 794.515625 280.90625 C 780.910156 280.90625 769.835938 291.976562 769.835938 305.585938 C 769.835938 319.195312 780.910156 330.265625 794.515625 330.265625 C 808.125 330.265625 819.195312 319.195312 819.195312 305.585938 C 819.195312 291.976562 808.125 280.90625 794.515625 280.90625 Z M 794.515625 280.90625 "/><path style=" stroke:none;fill-rule:nonzero;fill:#d9d9d9;fill-opacity:1;" d="M 882.402344 145.339844 L 583.394531 145.339844 C 573.613281 145.339844 565.683594 137.410156 565.683594 127.628906 C 565.683594 117.847656 573.613281 109.917969 583.394531 109.917969 L 882.398438 109.917969 C 892.183594 109.917969 900.113281 117.847656 900.113281 127.628906 C 900.113281 137.410156 892.183594 145.339844 882.402344 145.339844 Z M 882.402344 145.339844 "/><path style=" stroke:none;fill-rule:nonzero;fill:#001f8e;fill-opacity:1;" d="M 882.402344 148.707031 L 583.394531 148.707031 C 571.773438 148.707031 562.320312 139.25 562.320312 127.628906 C 562.320312 116.007812 571.773438 106.550781 583.394531 106.550781 L 882.402344 106.550781 C 894.023438 106.550781 903.476562 116.007812 903.476562 127.628906 C 903.476562 139.25 894.023438 148.707031 882.402344 148.707031 Z M 583.394531 113.28125 C 575.484375 113.28125 569.046875 119.71875 569.046875 127.628906 C 569.046875 135.539062 575.484375 141.976562 583.394531 141.976562 L 882.402344 141.976562 C 890.3125 141.976562 896.75 135.539062 896.75 127.628906 C 896.75 119.71875 890.3125 113.28125 882.402344 113.28125 Z M 583.394531 113.28125 "/><path style=" stroke:none;fill-rule:nonzero;fill:#6cdcff;fill-opacity:1;" d="M 890.386719 100.71875 L 879.199219 89.53125 C 876.730469 87.058594 872.722656 87.058594 870.25 89.53125 L 861.523438 98.257812 L 809.835938 149.941406 L 809.835938 149.945312 L 805.363281 174.554688 L 829.976562 170.082031 L 884.792969 115.261719 L 890.386719 109.667969 C 892.859375 107.199219 892.859375 103.1875 890.386719 100.71875 Z M 890.386719 100.71875 "/><path style=" stroke:none;fill-rule:nonzero;fill:#001f8e;fill-opacity:1;" d="M 805.363281 177.921875 C 804.480469 177.921875 803.621094 177.570312 802.984375 176.933594 C 802.203125 176.152344 801.855469 175.039062 802.054688 173.953125 L 806.515625 149.410156 C 806.625 148.726562 806.945312 148.078125 807.457031 147.5625 L 859.144531 95.878906 L 867.871094 87.148438 C 871.652344 83.371094 877.800781 83.371094 881.578125 87.148438 L 892.765625 98.339844 C 894.597656 100.167969 895.605469 102.601562 895.605469 105.191406 C 895.605469 107.78125 894.597656 110.21875 892.765625 112.046875 L 832.355469 172.460938 C 831.871094 172.945312 831.25 173.269531 830.578125 173.390625 L 805.964844 177.867188 C 805.765625 177.902344 805.5625 177.921875 805.363281 177.921875 Z M 812.960938 151.578125 L 809.542969 170.375 L 828.339844 166.957031 L 888.007812 107.289062 C 888.570312 106.730469 888.878906 105.984375 888.878906 105.191406 C 888.878906 104.402344 888.570312 103.65625 888.007812 103.097656 L 876.820312 91.910156 C 875.667969 90.753906 873.785156 90.753906 872.628906 91.910156 Z M 829.976562 170.082031 Z M 829.976562 170.082031 "/></g></svg>